<svg xmlns="http://www.w3.org/2000/svg" width="64" height="64" viewBox="0 0 64 64" role="img" aria-label="Tomekeeper">
  <path fill="#0F223D" fill-rule="evenodd" d="M63.00 32.00 L62.93 34.03 L62.73 36.05 L62.40 38.05 L61.94 40.02 L61.35 41.96 L60.64 43.86 L59.80 45.71 L58.85 47.50 L57.78 49.22 L56.59 50.87 L55.31 52.44 L53.92 53.92 L52.44 55.31 L50.87 56.59 L49.22 57.78 L47.50 58.85 L45.71 59.80 L43.86 60.64 L41.96 61.35 L40.02 61.94 L38.05 62.40 L36.05 62.73 L34.03 62.93 L32.00 63.00 L29.97 62.93 L27.95 62.73 L25.95 62.40 L23.98 61.94 L22.04 61.35 L20.14 60.64 L18.29 59.80 L16.50 58.85 L14.78 57.78 L13.13 56.59 L11.56 55.31 L10.08 53.92 L8.69 52.44 L7.41 50.87 L6.22 49.22 L5.15 47.50 L4.20 45.71 L3.36 43.86 L2.65 41.96 L2.06 40.02 L1.60 38.05 L1.27 36.05 L1.07 34.03 L1.00 32.00 L1.07 29.97 L1.27 27.95 L1.60 25.95 L2.06 23.98 L2.65 22.04 L3.36 20.14 L4.20 18.29 L5.15 16.50 L6.22 14.78 L7.41 13.13 L8.69 11.56 L10.08 10.08 L11.56 8.69 L13.13 7.41 L14.78 6.22 L16.50 5.15 L18.29 4.20 L20.14 3.36 L22.04 2.65 L23.98 2.06 L25.95 1.60 L27.95 1.27 L29.97 1.07 L32.00 1.00 L34.03 1.07 L36.05 1.27 L38.05 1.60 L40.02 2.06 L41.96 2.65 L43.86 3.36 L45.71 4.20 L47.50 5.15 L49.22 6.22 L50.87 7.41 L52.44 8.69 L53.92 10.08 L55.31 11.56 L56.59 13.13 L57.78 14.78 L58.85 16.50 L59.80 18.29 L60.64 20.14 L61.35 22.04 L61.94 23.98 L62.40 25.95 L62.73 27.95 L62.93 29.97Z"/>
  <path fill="#C8A15A" fill-rule="evenodd" d="M61.50 32.00 L61.44 33.93 L61.25 35.85 L60.93 37.76 L60.49 39.64 L59.93 41.48 L59.25 43.29 L58.46 45.05 L57.55 46.75 L56.53 48.39 L55.40 49.96 L54.18 51.45 L52.86 52.86 L51.45 54.18 L49.96 55.40 L48.39 56.53 L46.75 57.55 L45.05 58.46 L43.29 59.25 L41.48 59.93 L39.64 60.49 L37.76 60.93 L35.85 61.25 L33.93 61.44 L32.00 61.50 L30.07 61.44 L28.15 61.25 L26.24 60.93 L24.36 60.49 L22.52 59.93 L20.71 59.25 L18.95 58.46 L17.25 57.55 L15.61 56.53 L14.04 55.40 L12.55 54.18 L11.14 52.86 L9.82 51.45 L8.60 49.96 L7.47 48.39 L6.45 46.75 L5.54 45.05 L4.75 43.29 L4.07 41.48 L3.51 39.64 L3.07 37.76 L2.75 35.85 L2.56 33.93 L2.50 32.00 L2.56 30.07 L2.75 28.15 L3.07 26.24 L3.51 24.36 L4.07 22.52 L4.75 20.71 L5.54 18.95 L6.45 17.25 L7.47 15.61 L8.60 14.04 L9.82 12.55 L11.14 11.14 L12.55 9.82 L14.04 8.60 L15.61 7.47 L17.25 6.45 L18.95 5.54 L20.71 4.75 L22.52 4.07 L24.36 3.51 L26.24 3.07 L28.15 2.75 L30.07 2.56 L32.00 2.50 L33.93 2.56 L35.85 2.75 L37.76 3.07 L39.64 3.51 L41.48 4.07 L43.29 4.75 L45.05 5.54 L46.75 6.45 L48.39 7.47 L49.96 8.60 L51.45 9.82 L52.86 11.14 L54.18 12.55 L55.40 14.04 L56.53 15.61 L57.55 17.25 L58.46 18.95 L59.25 20.71 L59.93 22.52 L60.49 24.36 L60.93 26.24 L61.25 28.15 L61.44 30.07ZM58.30 32.00 L58.24 30.28 L58.07 28.57 L57.79 26.87 L57.40 25.19 L56.90 23.55 L56.30 21.94 L55.59 20.37 L54.78 18.85 L53.87 17.39 L52.87 15.99 L51.77 14.66 L50.60 13.40 L49.34 12.23 L48.01 11.13 L46.61 10.13 L45.15 9.22 L43.63 8.41 L42.06 7.70 L40.45 7.10 L38.81 6.60 L37.13 6.21 L35.43 5.93 L33.72 5.76 L32.00 5.70 L30.28 5.76 L28.57 5.93 L26.87 6.21 L25.19 6.60 L23.55 7.10 L21.94 7.70 L20.37 8.41 L18.85 9.22 L17.39 10.13 L15.99 11.13 L14.66 12.23 L13.40 13.40 L12.23 14.66 L11.13 15.99 L10.13 17.39 L9.22 18.85 L8.41 20.37 L7.70 21.94 L7.10 23.55 L6.60 25.19 L6.21 26.87 L5.93 28.57 L5.76 30.28 L5.70 32.00 L5.76 33.72 L5.93 35.43 L6.21 37.13 L6.60 38.81 L7.10 40.45 L7.70 42.06 L8.41 43.63 L9.22 45.15 L10.13 46.61 L11.13 48.01 L12.23 49.34 L13.40 50.60 L14.66 51.77 L15.99 52.87 L17.39 53.87 L18.85 54.78 L20.37 55.59 L21.94 56.30 L23.55 56.90 L25.19 57.40 L26.87 57.79 L28.57 58.07 L30.28 58.24 L32.00 58.30 L33.72 58.24 L35.43 58.07 L37.13 57.79 L38.81 57.40 L40.45 56.90 L42.06 56.30 L43.63 55.59 L45.15 54.78 L46.61 53.87 L48.01 52.87 L49.34 51.77 L50.60 50.60 L51.77 49.34 L52.87 48.01 L53.87 46.61 L54.78 45.15 L55.59 43.63 L56.30 42.06 L56.90 40.45 L57.40 38.81 L57.79 37.13 L58.07 35.43 L58.24 33.72Z"/>
  <path fill="#C8A15A" fill-rule="evenodd" d="M32.00 -0.50 L35.00 2.50 L32.00 5.50 L29.00 2.50ZM61.50 29.00 L64.50 32.00 L61.50 35.00 L58.50 32.00ZM32.00 58.50 L35.00 61.50 L32.00 64.50 L29.00 61.50ZM2.50 29.00 L5.50 32.00 L2.50 35.00 L-0.50 32.00Z"/>
  <path fill="#C8A15A" fill-rule="evenodd" d="M32.00 11.50 L52.50 32.00 L32.00 52.50 L11.50 32.00ZM32.00 15.70 L15.70 32.00 L32.00 48.30 L48.30 32.00Z"/>
  <path fill="#C8A15A" fill-rule="evenodd" d="M26.00 23.50 L38.00 23.50 L38.00 28.50 L26.00 28.50ZM29.70 23.50 L34.30 23.50 L34.30 40.50 L29.70 40.50Z"/>
</svg>
